<svg width="20" height="21" viewBox="0 0 20 21" fill="none" xmlns="http://www.w3.org/2000/svg">
<path fill-rule="evenodd" clip-rule="evenodd" d="M10 0.335693C4.48 0.335693 0 4.81569 0 10.3357C0 15.8557 4.48 20.3357 10 20.3357C15.51 20.3357 20 15.8557 20 10.3357C20 4.81569 15.51 0.335693 10 0.335693ZM16.605 4.94569C17.8357 6.445 18.5167 8.32006 18.535 10.2597C18.254 10.2057 15.434 9.63069 12.592 9.98869C12.527 9.84769 12.472 9.69569 12.408 9.54369C12.231 9.12674 12.043 8.71459 11.844 8.30769C14.989 7.02769 16.421 5.18369 16.605 4.94569ZM10 1.81069C12.17 1.81069 14.154 2.62369 15.662 3.95869C15.51 4.17469 14.219 5.89969 11.182 7.03869C9.783 4.46869 8.232 2.36369 7.993 2.03869C8.65086 1.88491 9.32441 1.80839 10 1.81069ZM6.367 2.61369C7.51144 4.2 8.56867 5.84744 9.534 7.54869C5.542 8.61169 2.017 8.58869 1.638 8.58869C1.91283 7.29582 2.48261 6.08391 3.3029 5.04748C4.12319 4.01106 5.17182 3.17814 6.367 2.61369ZM1.453 10.3457V10.0857C1.823 10.0957 5.965 10.1507 10.228 8.87069C10.478 9.34769 10.705 9.83569 10.922 10.3237C10.813 10.3567 10.694 10.3887 10.586 10.4217C6.182 11.8417 3.839 15.7247 3.644 16.0507C2.23384 14.4851 1.45264 12.4527 1.453 10.3457ZM10 18.8827C8.10143 18.8859 6.25667 18.2521 4.761 17.0827C4.913 16.7677 6.649 13.4267 11.464 11.7457C11.486 11.7357 11.497 11.7357 11.518 11.7237C12.3303 13.8191 12.9407 15.9873 13.341 18.1987C12.2858 18.6527 11.1487 18.8855 10 18.8827ZM14.761 17.4177C14.675 16.8977 14.219 14.4027 13.102 11.3337C15.781 10.9107 18.124 11.6047 18.416 11.7027C18.2336 12.8558 17.8148 13.9587 17.1858 14.9422C16.5568 15.9257 15.7313 16.7685 14.761 17.4177Z" fill="white"/>
</svg>
